# xmcd CD database file
# Copyright (C) 1993-1998 Ti Kan
# 
# Track frame offsets:
#     150
#     17315
#     32577
#     49765
#     72180
#     91547
#     118470
#     136575
#     151647
#     174062
#     196102
#     217592
#     236427
#     248042
# 
# Disc length: 3421 seconds
# 
# Revision: 2
# Processed by: cddbd v1.4b41PL1 Copyright (c) Steve Scherf et al.
# Submitted via: DiscPlay 4.0.4
# 
DISCID=960d5b0e
DTITLE=The Blue Birds - Argentina
DYEAR=1900
DGENRE=
TTITLE0=99 Lbs.
TTITLE1=You Can't Go Back
TTITLE2=Be True To Me
TTITLE3=Sucker Punch
TTITLE4=Sleep Wiith My Memory
TTITLE5=I like Skin
TTITLE6=Where Is That Woman
TTITLE7=Sweet Sally Habit
TTITLE8=Sugar Sweet
TTITLE9=Traded Down
TTITLE10=What's Your Mission
TTITLE11=I Feel  Good
TTITLE12=Tomorrow Will Be A Better Day
TTITLE13=Nighttrian To Buenos-Aires
EXTD=
EXTT0=
EXTT1=
EXTT2=
EXTT3=
EXTT4=
EXTT5=
EXTT6=
EXTT7=
EXTT8=
EXTT9=
EXTT10=
EXTT11=
EXTT12=
EXTT13=
PLAYORDER=
